<svg width="40" height="40" viewBox="0 0 40 40" fill="none" xmlns="http://www.w3.org/2000/svg">
<g clip-path="url(#clip0_763_1223)">
<path d="M27.5833 20.5C27.5833 20.8115 27.4679 21.081 27.237 21.3086L17.3203 31.0836C17.0894 31.3112 16.816 31.425 16.5 31.425C16.184 31.425 15.9106 31.3112 15.6797 31.0836C15.4488 30.856 15.3333 30.5865 15.3333 30.275V25.1H7.16667C6.85069 25.1 6.57726 24.9862 6.34635 24.7586C6.11545 24.531 6 24.2615 6 23.95V17.05C6 16.7385 6.11545 16.469 6.34635 16.2414C6.57726 16.0138 6.85069 15.9 7.16667 15.9H15.3333V10.725C15.3333 10.4135 15.4488 10.144 15.6797 9.91641C15.9106 9.6888 16.184 9.575 16.5 9.575C16.816 9.575 17.0894 9.6888 17.3203 9.91641L27.237 19.6914C27.4679 19.919 27.5833 20.1885 27.5833 20.5ZM34 14.175V26.825C34 28.2505 33.4865 29.4694 32.4596 30.4816C31.4327 31.4939 30.1962 32 28.75 32H22.9167C22.7587 32 22.622 31.9431 22.5065 31.8293C22.3911 31.7155 22.3333 31.5807 22.3333 31.425C22.3333 31.3771 22.3273 31.2573 22.3151 31.0656C22.303 30.874 22.2999 30.7152 22.306 30.5895C22.3121 30.4637 22.3303 30.3229 22.3607 30.1672C22.3911 30.0115 22.4518 29.8947 22.543 29.8168C22.6341 29.7389 22.7587 29.7 22.9167 29.7H28.75C29.5521 29.7 30.2387 29.4185 30.8099 28.8555C31.3811 28.2924 31.6667 27.6156 31.6667 26.825V14.175C31.6667 13.3844 31.3811 12.7076 30.8099 12.1445C30.2387 11.5815 29.5521 11.3 28.75 11.3H23.0625L22.8529 11.282L22.6432 11.2281L22.4974 11.1293L22.3698 10.9676L22.3333 10.725C22.3333 10.6771 22.3273 10.5573 22.3151 10.3656C22.303 10.174 22.2999 10.0152 22.306 9.88945C22.3121 9.76367 22.3303 9.62292 22.3607 9.46719C22.3911 9.31146 22.4518 9.19466 22.543 9.1168C22.6341 9.03893 22.7587 9 22.9167 9H28.75C30.1962 9 31.4327 9.50612 32.4596 10.5184C33.4865 11.5306 34 12.7495 34 14.175Z" fill="white"/>
</g>
<defs>
<clipPath id="clip0_763_1223">
<rect width="28" height="23" fill="white" transform="translate(6 9)"/>
</clipPath>
</defs>
</svg>
