<svg width="40" height="40" viewBox="0 0 40 40" fill="none" xmlns="http://www.w3.org/2000/svg">
<path fill-rule="evenodd" clip-rule="evenodd" d="M15.6667 14.3889C15.6667 13.3722 16.0706 12.3972 16.7894 11.6783C17.5083 10.9594 18.4833 10.5556 19.5 10.5556C20.5167 10.5556 21.4917 10.9594 22.2106 11.6783C22.9294 12.3972 23.3333 13.3722 23.3333 14.3889H15.6667ZM13.1112 14.3889C13.1112 12.6945 13.7843 11.0694 14.9824 9.87126C16.1805 8.67311 17.8056 8 19.5 8C21.1944 8 22.8195 8.67311 24.0176 9.87126C25.2157 11.0694 25.8888 12.6945 25.8888 14.3889H29.7222C29.8997 14.3889 30.0752 14.4259 30.2376 14.4974C30.4001 14.569 30.5458 14.6737 30.6655 14.8047C30.7852 14.9358 30.8764 15.0903 30.9331 15.2585C30.9898 15.4267 31.0108 15.6049 30.9948 15.7817L29.9279 27.5142C29.8412 28.4666 29.4016 29.3522 28.6954 29.9972C27.9893 30.6421 27.0675 30.9998 26.1112 31H12.8888C11.9325 30.9998 11.0107 30.6421 10.3046 29.9972C9.59842 29.3522 9.15883 28.4666 9.07212 27.5142L8.00519 15.7817C7.98921 15.6049 8.01024 15.4267 8.06694 15.2585C8.12364 15.0903 8.21476 14.9358 8.33449 14.8047C8.45423 14.6737 8.59995 14.569 8.76237 14.4974C8.92479 14.4259 9.10034 14.3889 9.27784 14.3889H13.1112Z" fill="white"/>
</svg>
