<svg width="40" height="40" viewBox="0 0 40 40" fill="none" xmlns="http://www.w3.org/2000/svg">
<g clip-path="url(#clip0_763_1216)">
<path d="M19.0097 7C21.2648 6.99985 23.4744 7.61107 25.3856 8.7637C27.2969 9.91633 28.8325 11.5638 29.8168 13.5176C30.801 15.4713 31.1942 17.6525 30.9512 19.8114C30.7083 21.9703 29.8391 24.0197 28.443 25.7251L33.6033 30.6941C33.8607 30.9507 34.0032 31.2944 33.9999 31.6512C33.9967 32.0079 33.8481 32.3492 33.5861 32.6015C33.3242 32.8538 32.9697 32.9968 32.5993 32.9999C32.2288 33.003 31.8718 32.8659 31.6053 32.6181L26.445 27.649C24.9407 28.7905 23.1748 29.5691 21.2945 29.9198C19.4143 30.2705 17.4742 30.1831 15.6361 29.6649C13.798 29.1468 12.1153 28.2129 10.7283 26.9411C9.34127 25.6694 8.29021 24.0967 7.66279 22.3542C7.03536 20.6118 6.84977 18.7501 7.1215 16.9245C7.39323 15.099 8.11439 13.3625 9.22482 11.8599C10.3353 10.3573 11.8028 9.13215 13.5049 8.28675C15.207 7.44134 17.0944 7.00016 19.0097 7ZM19.0097 9.72127C16.5737 9.72127 14.2376 10.6531 12.5151 12.3117C10.7927 13.9703 9.82502 16.2198 9.82502 18.5654C9.82502 20.911 10.7927 23.1606 12.5151 24.8192C14.2376 26.4778 16.5737 27.4095 19.0097 27.4095C21.4456 27.4095 23.7817 26.4778 25.5042 24.8192C27.2266 23.1606 28.1943 20.911 28.1943 18.5654C28.1943 16.2198 27.2266 13.9703 25.5042 12.3117C23.7817 10.6531 21.4456 9.72127 19.0097 9.72127ZM19.0097 11.0819C21.0708 11.0819 23.0476 11.8703 24.505 13.2738C25.9625 14.6772 26.7813 16.5807 26.7813 18.5654C26.7813 20.5502 25.9625 22.4536 24.505 23.857C23.0476 25.2605 21.0708 26.0489 19.0097 26.0489C16.9485 26.0489 14.9718 25.2605 13.5143 23.857C12.0568 22.4536 11.238 20.5502 11.238 18.5654C11.238 16.5807 12.0568 14.6772 13.5143 13.2738C14.9718 11.8703 16.9485 11.0819 19.0097 11.0819Z" fill="white"/>
</g>
<defs>
<clipPath id="clip0_763_1216">
<rect width="40" height="40" fill="white"/>
</clipPath>
</defs>
</svg>
