<svg width="65" height="65" viewBox="0 0 65 65" fill="none" xmlns="http://www.w3.org/2000/svg">
<g clip-path="url(#clip0_1752_1306)">
<path d="M55.3741 27.0657C55.5342 27.739 55.4806 28.4454 55.2208 29.0869C54.9609 29.7283 54.5077 30.2728 53.9241 30.6447L41.9734 38.3822L40.2285 52.509C40.1395 53.192 39.8435 53.8315 39.3804 54.3414C38.9173 54.8513 38.3092 55.2073 37.6379 55.3615C36.9665 55.5158 36.264 55.4608 35.6248 55.2041C34.9856 54.9474 34.4403 54.5012 34.0621 53.9255L26.3266 41.9744L12.1978 40.2299C11.5148 40.1409 10.8753 39.8449 10.3654 39.3818C9.85545 38.9187 9.49946 38.3106 9.34524 37.6393C9.19102 36.9679 9.24595 36.2655 9.50266 35.6262C9.75938 34.987 10.2056 34.4417 10.7813 34.0635L22.7324 26.3281L24.4769 12.1992C24.5659 11.5162 24.8619 10.8767 25.325 10.3668C25.7881 9.85687 26.3961 9.50088 27.0675 9.34666C27.7389 9.19244 28.4413 9.24737 29.0805 9.50409C29.7198 9.7608 30.2651 10.207 30.6433 10.7827L38.3808 22.7334L52.5075 24.4783C53.195 24.5583 53.8404 24.8504 54.3541 25.3141C54.8678 25.7778 55.2243 26.3901 55.3741 27.0657Z" fill="#5A2AAF"/>
</g>
<defs>
<clipPath id="clip0_1752_1306">
<rect width="53.9908" height="53.9908" fill="white" transform="translate(0 12.0879) rotate(-12.9373)"/>
</clipPath>
</defs>
</svg>
