<svg width="854" height="151" viewBox="0 0 854 151" fill="none" xmlns="http://www.w3.org/2000/svg">
<path d="M24.16 67.6325V65.4361H26.3564V67.6325H24.16ZM24.16 47.8652V45.6688H26.3564V47.8652H24.16ZM13.1782 65.4361H15.3745V67.6325H13.1782H10.9818V65.4361H13.1782ZM6.58909 67.6325H4.39273V65.4361H6.58909V63.2397V61.0434H4.39273H2.19636V58.847H4.39273H6.58909V56.6507V54.4543V52.2579V50.0616H4.39273H2.19636V47.8652H4.39273H6.58909V45.6688V43.4725H8.78546V45.6688V47.8652H10.9818V50.0616H13.1782H15.3745H17.5709V47.8652V45.6688V43.4725H19.7673V45.6688V47.8652V50.0616H21.9636H24.16H26.3564V52.2579H24.16H21.9636H19.7673V54.4543V56.6507V58.847H21.9636V61.0434V63.2397H24.16V65.4361H21.9636V63.2397H19.7673V65.4361H17.5709H15.3745V63.2397H17.5709H19.7673V61.0434V58.847H17.5709V56.6507V54.4543V52.2579H15.3745H13.1782H10.9818V50.0616H8.78546V52.2579V54.4543V56.6507H10.9818V58.847H8.78546V61.0434V63.2397V65.4361V67.6325H6.58909ZM21.9636 58.847V56.6507V54.4543H24.16V56.6507V58.847H21.9636ZM24.16 45.6688H21.9636V43.4725H24.16V45.6688ZM52.7042 65.4361H54.9005V67.6325H52.7042H50.5078H48.3114H46.1151H43.9187H41.7223H39.526H37.3296H35.1332H32.9369H30.7405V65.4361H32.9369H35.1332H37.3296H39.526H41.7223V63.2397V61.0434V58.847H39.526H37.3296H35.1332H32.9369V56.6507H35.1332H37.3296H39.526H41.7223V54.4543V52.2579V50.0616H39.526H37.3296H35.1332H32.9369H30.7405V47.8652H32.9369H35.1332H37.3296H39.526H41.7223V45.6688H43.9187V47.8652H46.1151H48.3114H50.5078H52.7042H54.9005V50.0616H52.7042H50.5078H48.3114H46.1151H43.9187V52.2579V54.4543V56.6507H46.1151H48.3114H50.5078H52.7042V58.847H50.5078H48.3114H46.1151H43.9187V61.0434V63.2397V65.4361H46.1151H48.3114H50.5078H52.7042ZM41.7223 45.6688H39.526V43.4725H41.7223V45.6688ZM81.2483 67.6325V65.4361H83.4447V67.6325H81.2483ZM68.0701 67.6325V65.4361V63.2397H70.2665V65.4361V67.6325H68.0701ZM63.6774 67.6325V65.4361V63.2397V61.0434V58.847H61.481V61.0434V63.2397H59.2847V61.0434V58.847H61.481V56.6507V54.4543H63.6774V52.2579V50.0616H61.481H59.2847V47.8652H61.481H63.6774V45.6688V43.4725H65.8738V45.6688V47.8652H68.0701V50.0616H70.2665V52.2579H72.4628V50.0616H74.6592V52.2579H76.8556V50.0616H79.0519V52.2579H81.2483V50.0616H83.4447V52.2579V54.4543H81.2483V56.6507H83.4447V58.847H81.2483H79.0519V61.0434V63.2397H81.2483V65.4361H79.0519V67.6325H76.8556H74.6592V65.4361H76.8556H79.0519V63.2397H76.8556V61.0434V58.847H74.6592H72.4628V61.0434H74.6592V63.2397H72.4628H70.2665V61.0434V58.847H68.0701V56.6507H70.2665H72.4628H74.6592V54.4543H72.4628H70.2665H68.0701V52.2579V50.0616H65.8738V52.2579V54.4543V56.6507V58.847V61.0434V63.2397V65.4361V67.6325H63.6774ZM81.2483 63.2397V61.0434H83.4447V63.2397H81.2483ZM79.0519 56.6507V54.4543H76.8556V56.6507H79.0519ZM81.2483 50.0616H79.0519V47.8652H81.2483V50.0616ZM76.8556 50.0616H74.6592V47.8652V45.6688V43.4725H76.8556V45.6688H79.0519V47.8652H76.8556V50.0616ZM72.4628 50.0616H70.2665V47.8652H72.4628V50.0616ZM81.2483 47.8652V45.6688H83.4447V47.8652H81.2483ZM70.2665 47.8652H68.0701V45.6688H70.2665V47.8652ZM81.2483 45.6688H79.0519V43.4725H81.2483V45.6688ZM70.2665 45.6688V43.4725H72.4628V45.6688H70.2665ZM96.6143 61.0434H94.4179V58.847H96.6143V56.6507V54.4543H98.8106H101.007V56.6507V58.847H98.8106V61.0434H96.6143ZM127.355 67.6325V65.4361V63.2397V61.0434V58.847V56.6507V54.4543H125.158V56.6507H122.962H120.766V58.847H118.569H116.373V56.6507H118.569H120.766V54.4543H122.962H125.158V52.2579H127.355V50.0616H129.551V52.2579V54.4543V56.6507V58.847V61.0434V63.2397V65.4361V67.6325H127.355ZM138.337 61.0434V58.847H140.533V61.0434H138.337ZM138.337 58.847H136.14V56.6507H138.337V58.847ZM136.14 56.6507H133.944V54.4543H136.14V56.6507ZM133.944 54.4543H131.748V52.2579H133.944V54.4543ZM129.551 50.0616V47.8652H131.748V50.0616H129.551ZM131.748 47.8652V45.6688H129.551H127.355H125.158H122.962H120.766H118.569H116.373V43.4725H118.569H120.766H122.962H125.158H127.355H129.551H131.748H133.944H136.14H138.337H140.533V45.6688H138.337H136.14H133.944V47.8652H131.748ZM155.899 67.6325V65.4361V63.2397V61.0434V58.847H153.703H151.506H149.31V61.0434V63.2397H147.113V65.4361V67.6325H144.917V65.4361V63.2397H147.113V61.0434V58.847V56.6507V54.4543V52.2579V50.0616V47.8652V45.6688V43.4725H149.31H151.506H153.703H155.899H158.095H160.292H162.488H164.684H166.881H169.077V45.6688V47.8652V50.0616V52.2579V54.4543V56.6507V58.847V61.0434V63.2397V65.4361V67.6325H166.881H164.684H162.488V65.4361H164.684H166.881V63.2397V61.0434V58.847H164.684H162.488H160.292H158.095V61.0434V63.2397V65.4361V67.6325H155.899ZM164.684 56.6507H166.881V54.4543V52.2579H164.684H162.488H160.292H158.095V54.4543V56.6507H160.292H162.488H164.684ZM164.684 50.0616H166.881V47.8652V45.6688H164.684H162.488H160.292H158.095V47.8652V50.0616H160.292H162.488H164.684ZM153.703 56.6507H155.899V54.4543V52.2579H153.703H151.506H149.31V54.4543V56.6507H151.506H153.703ZM153.703 50.0616H155.899V47.8652V45.6688H153.703H151.506H149.31V47.8652V50.0616H151.506H153.703ZM175.658 67.6325V65.4361V63.2397V61.0434H173.461V58.847H175.658V56.6507V54.4543V52.2579V50.0616V47.8652H177.854H180.05H182.247H184.443V45.6688H182.247H180.05H177.854H175.658H173.461V43.4725H175.658H177.854H180.05H182.247H184.443H186.639H188.836H191.032H193.229H195.425H197.621V45.6688H195.425H193.229H191.032H188.836H186.639V47.8652H188.836H191.032H193.229H195.425V50.0616V52.2579V54.4543V56.6507V58.847H197.621V61.0434H195.425V63.2397V65.4361V67.6325H193.229H191.032V65.4361H193.229V63.2397V61.0434H191.032H188.836H186.639H184.443H182.247H180.05H177.854V63.2397V65.4361V67.6325H175.658ZM191.032 58.847H193.229V56.6507V54.4543H191.032H188.836H186.639V56.6507V58.847H188.836H191.032ZM182.247 58.847H184.443V56.6507V54.4543H182.247H180.05H177.854V56.6507V58.847H180.05H182.247ZM191.032 52.2579H193.229V50.0616H191.032H188.836H186.639V52.2579H188.836H191.032ZM182.247 52.2579H184.443V50.0616H182.247H180.05H177.854V52.2579H180.05H182.247ZM223.969 67.6325H221.773H219.576H217.38H215.184V65.4361V63.2397V61.0434V58.847V56.6507V54.4543V52.2579V50.0616V47.8652V45.6688V43.4725H217.38V45.6688V47.8652V50.0616V52.2579H219.576H221.773V54.4543H219.576H217.38V56.6507V58.847V61.0434V63.2397V65.4361H219.576H221.773H223.969V63.2397V61.0434H226.165V63.2397V65.4361V67.6325H223.969ZM206.398 67.6325H204.202H202.005V65.4361H204.202V63.2397V61.0434V58.847V56.6507V54.4543V52.2579V50.0616V47.8652V45.6688V43.4725H206.398V45.6688V47.8652V50.0616V52.2579H208.595H210.791H212.987V54.4543H210.791H208.595H206.398V56.6507V58.847V61.0434V63.2397V65.4361H208.595V67.6325H206.398ZM210.791 63.2397H212.987V65.4361H210.791H208.595V63.2397H210.791ZM223.969 50.0616H226.165V52.2579H223.969H221.773V50.0616H223.969ZM252.513 67.6325V65.4361H254.71V67.6325H252.513ZM232.746 67.6325V65.4361V63.2397V61.0434V58.847V56.6507V54.4543H230.55V52.2579H232.746V50.0616V47.8652H234.942V50.0616V52.2579V54.4543V56.6507V58.847V61.0434V63.2397V65.4361V67.6325H232.746ZM239.335 65.4361H241.531V67.6325H239.335H237.139V65.4361H239.335ZM252.513 65.4361H250.317V63.2397H248.12H245.924H243.728V65.4361H241.531V63.2397H239.335V61.0434V58.847V56.6507V54.4543H237.139V52.2579V50.0616V47.8652H234.942V45.6688V43.4725H237.139H239.335H241.531H243.728H245.924H248.12H250.317H252.513H254.71V45.6688H252.513H250.317V47.8652H252.513H254.71V50.0616V52.2579V54.4543H252.513V56.6507V58.847V61.0434V63.2397V65.4361ZM248.12 61.0434H250.317V58.847H248.12H245.924H243.728H241.531V61.0434H243.728H245.924H248.12ZM248.12 56.6507H250.317V54.4543H248.12H245.924H243.728H241.531V56.6507H243.728H245.924H248.12ZM241.531 52.2579H243.728V50.0616H241.531H239.335V52.2579H241.531ZM252.513 52.2579V50.0616H250.317V52.2579H252.513ZM248.12 52.2579V50.0616H245.924V52.2579H248.12ZM241.531 47.8652H243.728V45.6688H241.531H239.335H237.139V47.8652H239.335H241.531ZM248.12 47.8652V45.6688H245.924V47.8652H248.12ZM281.057 67.6325H278.861H276.665H274.468H272.272V65.4361V63.2397V61.0434V58.847V56.6507V54.4543V52.2579V50.0616V47.8652V45.6688V43.4725H274.468V45.6688V47.8652V50.0616V52.2579H276.665H278.861V54.4543H276.665H274.468V56.6507V58.847V61.0434V63.2397V65.4361H276.665H278.861H281.057V63.2397V61.0434H283.254V63.2397V65.4361V67.6325H281.057ZM263.486 67.6325H261.29H259.094V65.4361H261.29V63.2397V61.0434V58.847V56.6507V54.4543V52.2579V50.0616V47.8652V45.6688V43.4725H263.486V45.6688V47.8652V50.0616V52.2579H265.683H267.879H270.076V54.4543H267.879H265.683H263.486V56.6507V58.847V61.0434V63.2397V65.4361H265.683V67.6325H263.486ZM267.879 63.2397H270.076V65.4361H267.879H265.683V63.2397H267.879ZM281.057 50.0616H283.254V52.2579H281.057H278.861V50.0616H281.057ZM300.816 67.6325V65.4361V63.2397V61.0434V58.847V56.6507V54.4543H303.012H305.209H307.405H309.601V56.6507V58.847V61.0434V63.2397V65.4361H307.405H305.209V63.2397H307.405V61.0434V58.847V56.6507H305.209H303.012V58.847V61.0434V63.2397V65.4361V67.6325H300.816ZM296.423 65.4361H294.227H292.031H289.834V63.2397V61.0434V58.847V56.6507V54.4543H292.031H294.227H296.423H298.62V56.6507V58.847V61.0434V63.2397V65.4361H296.423ZM294.227 63.2397H296.423V61.0434V58.847V56.6507H294.227H292.031V58.847V61.0434V63.2397H294.227ZM309.601 54.4543V52.2579H311.798V54.4543H309.601ZM289.834 54.4543H287.638V52.2579H289.834V54.4543ZM309.601 52.2579H307.405V50.0616H309.601V52.2579ZM303.012 50.0616H305.209V52.2579H303.012H300.816H298.62H296.423H294.227V50.0616H296.423H298.62H300.816H303.012ZM289.834 52.2579V50.0616H292.031V52.2579H289.834ZM307.405 50.0616H305.209V47.8652H307.405V50.0616ZM294.227 50.0616H292.031V47.8652H294.227V50.0616ZM305.209 47.8652H303.012V45.6688H305.209V47.8652ZM294.227 47.8652V45.6688H296.423V47.8652H294.227ZM303.012 45.6688H300.816H298.62H296.423V43.4725H298.62H300.816H303.012V45.6688ZM316.182 67.6325V65.4361H318.378V67.6325H316.182ZM318.378 54.4543V52.2579H320.575V54.4543H318.378ZM318.378 47.8652V45.6688H320.575V47.8652H318.378ZM338.146 65.4361H340.342V67.6325H338.146H335.949H333.753H331.557H329.36H327.164H324.967V65.4361H322.771V63.2397H324.967V61.0434H327.164H329.36H331.557V58.847H329.36H327.164H324.967V56.6507V54.4543V52.2579V50.0616V47.8652H322.771V45.6688V43.4725H324.967H327.164H329.36H331.557H333.753H335.949H338.146H340.342V45.6688V47.8652V50.0616V52.2579V54.4543V56.6507V58.847H338.146H335.949H333.753V61.0434H335.949H338.146H340.342V63.2397H338.146H335.949H333.753V65.4361H335.949H338.146ZM329.36 65.4361H331.557V63.2397H329.36H327.164H324.967V65.4361H327.164H329.36ZM318.378 65.4361V63.2397H320.575V65.4361H318.378ZM322.771 63.2397H320.575V61.0434V58.847H318.378H316.182V56.6507H318.378H320.575H322.771V58.847V61.0434V63.2397ZM335.949 56.6507H338.146V54.4543H335.949H333.753V56.6507H335.949ZM329.36 56.6507H331.557V54.4543H329.36H327.164V56.6507H329.36ZM335.949 52.2579H338.146V50.0616H335.949H333.753V52.2579H335.949ZM329.36 52.2579H331.557V50.0616H329.36H327.164V52.2579H329.36ZM318.378 52.2579H316.182V50.0616H318.378V52.2579ZM335.949 47.8652H338.146V45.6688H335.949H333.753V47.8652H335.949ZM329.36 47.8652H331.557V45.6688H329.36H327.164H324.967V47.8652H327.164H329.36ZM318.378 45.6688H316.182V43.4725H318.378V45.6688Z" fill="white"/>
<path d="M5.85697 119.011V116.082H32.2133V119.011H5.85697ZM81.9747 130.725H84.9032V133.653H81.9747H79.0462V130.725H81.9747ZM55.6183 130.725H58.5468V133.653H55.6183H52.6898V130.725H55.6183ZM79.0462 130.725H76.1177V127.796H73.1892H70.2608H67.3323H64.4038H61.4753V130.725H58.5468V127.796H55.6183V124.868V121.939V119.011V116.082V113.154H58.5468H61.4753H64.4038H67.3323H70.2608H73.1892H76.1177H79.0462H81.9747V116.082V119.011V121.939V124.868V127.796H79.0462V130.725ZM76.1177 124.868H79.0462V121.939H76.1177H73.1892H70.2608H67.3323H64.4038H61.4753H58.5468V124.868H61.4753H64.4038H67.3323H70.2608H73.1892H76.1177ZM76.1177 119.011H79.0462V116.082H76.1177H73.1892H70.2608H67.3323H64.4038H61.4753H58.5468V119.011H61.4753H64.4038H67.3323H70.2608H73.1892H76.1177ZM81.9747 110.225H79.0462H76.1177H73.1892H70.2608H67.3323H64.4038H61.4753H58.5468H55.6183H52.6898V107.297V104.369V101.44H55.6183H58.5468H61.4753H64.4038H67.3323H70.2608H73.1892H76.1177H79.0462H81.9747H84.9032V104.369V107.297V110.225H81.9747ZM79.0462 107.297H81.9747V104.369H79.0462H76.1177V107.297H79.0462ZM70.2608 107.297H73.1892V104.369H70.2608H67.3323H64.4038V107.297H67.3323H70.2608ZM58.5468 107.297H61.4753V104.369H58.5468H55.6183V107.297H58.5468ZM93.6772 133.653V130.725V127.796V124.868V121.939H90.7487V119.011H93.6772V116.082H96.6057V119.011V121.939V124.868V127.796V130.725V133.653H93.6772ZM105.391 130.725V127.796H108.32V130.725H105.391ZM90.7487 110.225V107.297H93.6772V110.225H90.7487ZM114.177 133.653H111.248V130.725H114.177V127.796V124.868V121.939H111.248H108.32H105.391H102.463V119.011H105.391H108.32H111.248H114.177V116.082H111.248H108.32H105.391V113.154V110.225V107.297V104.369V101.44H108.32H111.248H114.177H117.105H120.034V104.369V107.297V110.225V113.154V116.082H117.105V119.011H120.034H122.962V121.939H120.034H117.105V124.868V127.796V130.725V133.653H114.177ZM105.391 127.796H102.463V124.868H105.391V127.796ZM114.177 113.154H117.105V110.225H114.177H111.248H108.32V113.154H111.248H114.177ZM96.6057 116.082V113.154H99.5342V116.082H96.6057ZM114.177 107.297H117.105V104.369H114.177H111.248H108.32V107.297H111.248H114.177ZM93.6772 107.297V104.369H96.6057V107.297H93.6772ZM96.6057 104.369V101.44H99.5342V104.369H96.6057ZM158.092 133.653V130.725H161.021V133.653H158.092ZM128.808 130.725V127.796V124.868H131.736V127.796V130.725H128.808ZM146.378 130.725H149.307V133.653H146.378H143.45V130.725H146.378ZM137.593 130.725H140.522V133.653H137.593H134.665V130.725H137.593ZM158.092 130.725H155.164V127.796H158.092V130.725ZM149.307 130.725V127.796H152.235V130.725H149.307ZM143.45 130.725H140.522V127.796V124.868V121.939V119.011H137.593H134.665V121.939V124.868H131.736V121.939V119.011H134.665V116.082V113.154V110.225H131.736H128.808V107.297H131.736H134.665V104.369V101.44H137.593V104.369V107.297H140.522H143.45V110.225H146.378V113.154V116.082H143.45V113.154V110.225H140.522H137.593V113.154V116.082H140.522H143.45V119.011V121.939V124.868V127.796V130.725ZM155.164 127.796H152.235V124.868V121.939H155.164V124.868V127.796ZM155.164 121.939V119.011V116.082V113.154V110.225V107.297H152.235H149.307V110.225H146.378V107.297V104.369V101.44H149.307V104.369H152.235H155.164H158.092H161.021V107.297H158.092V110.225V113.154V116.082V119.011V121.939H155.164ZM152.235 121.939H149.307V119.011V116.082H152.235V119.011V121.939ZM166.866 127.796V124.868V121.939H169.795V124.868V127.796H166.866ZM196.151 124.868V121.939V119.011H199.08V121.939V124.868H196.151ZM187.366 130.725H190.294V133.653H187.366H184.437H181.509H178.58V130.725H181.509H184.437H187.366ZM190.294 130.725V127.796V124.868H193.223V127.796V130.725H190.294ZM178.58 130.725H175.652V127.796V124.868V121.939V119.011V116.082V113.154V110.225H178.58V113.154V116.082V119.011V121.939V124.868V127.796V130.725ZM169.795 121.939V119.011V116.082H172.723V119.011V121.939H169.795ZM196.151 119.011H193.223V116.082V113.154H196.151V116.082V119.011ZM184.437 104.369H187.366V107.297H184.437H181.509V104.369H184.437ZM181.509 104.369H178.58H175.652V101.44H178.58H181.509V104.369ZM216.639 124.868H213.711V121.939H216.639V119.011V116.082H219.568H222.496V119.011V121.939H219.568V124.868H216.639ZM272.269 133.653H269.341H266.412V130.725V127.796V124.868V121.939V119.011V116.082H263.484H260.555V119.011V121.939V124.868V127.796H257.627V130.725H254.698V133.653H251.77H248.841V130.725H251.77H254.698V127.796H257.627V124.868V121.939V119.011V116.082H254.698H251.77V119.011V121.939H254.698V124.868H251.77H248.841V127.796H245.913H242.984V124.868H245.913H248.841V121.939V119.011V116.082H245.913H242.984V113.154H245.913H248.841V110.225V107.297H245.913H242.984V104.369H245.913H248.841H251.77H254.698V107.297H251.77V110.225V113.154H254.698H257.627H260.555H263.484H266.412H269.341H272.269H275.198V116.082H272.269H269.341V119.011V121.939V124.868V127.796V130.725H272.269V127.796H275.198V130.725V133.653H272.269ZM272.269 101.44H275.198V104.369H272.269H269.341H266.412H263.484H260.555H257.627H254.698V101.44H257.627H260.555H263.484H266.412H269.341H272.269ZM301.542 121.939V119.011H304.471V121.939H301.542ZM295.685 113.154V110.225V107.297H298.614V110.225V113.154H295.685ZM304.471 130.725H307.399V133.653H304.471H301.542V130.725H304.471ZM307.399 130.725V127.796H310.328V130.725H307.399ZM289.829 130.725H286.9H283.972H281.043V127.796V124.868V121.939V119.011V116.082V113.154V110.225V107.297H283.972V104.369V101.44H286.9V104.369V107.297H289.829H292.757V110.225V113.154V116.082V119.011V121.939V124.868V127.796V130.725H289.829ZM286.9 127.796H289.829V124.868V121.939V119.011H286.9H283.972V121.939V124.868V127.796H286.9ZM310.328 127.796V124.868V121.939V119.011V116.082V113.154V110.225V107.297H307.399H304.471H301.542H298.614V104.369V101.44H301.542V104.369H304.471H307.399H310.328H313.256V107.297V110.225V113.154V116.082V119.011V121.939V124.868V127.796H310.328ZM301.542 119.011H298.614V116.082H301.542V119.011ZM286.9 116.082H289.829V113.154V110.225H286.9H283.972V113.154V116.082H286.9ZM336.673 133.653V130.725V127.796H333.744V130.725H330.816V133.653H327.887V130.725H330.816V127.796H327.887H324.959V124.868H327.887H330.816V121.939H327.887H324.959V119.011H327.887H330.816H333.744H336.673H339.601H342.53H345.458V121.939H342.53H339.601V124.868H342.53H345.458V127.796H342.53H339.601V130.725V133.653H336.673ZM319.102 133.653V130.725V127.796V124.868V121.939V119.011V116.082V113.154V110.225V107.297V104.369V101.44H322.03H324.959H327.887H330.816H333.744V104.369V107.297V110.225V113.154V116.082H330.816H327.887H324.959H322.03V119.011V121.939V124.868V127.796V130.725V133.653H319.102ZM348.387 133.653H345.458V130.725H348.387V127.796V124.868V121.939V119.011V116.082H345.458H342.53H339.601H336.673V113.154V110.225V107.297V104.369V101.44H339.601H342.53H345.458H348.387H351.315V104.369V107.297V110.225V113.154V116.082V119.011V121.939V124.868V127.796V130.725V133.653H348.387ZM336.673 124.868V121.939H333.744V124.868H336.673ZM345.458 113.154H348.387V110.225H345.458H342.53H339.601V113.154H342.53H345.458ZM327.887 113.154H330.816V110.225H327.887H324.959H322.03V113.154H324.959H327.887ZM345.458 107.297H348.387V104.369H345.458H342.53H339.601V107.297H342.53H345.458ZM327.887 107.297H330.816V104.369H327.887H324.959H322.03V107.297H324.959H327.887ZM357.161 127.796V124.868V121.939H360.089V124.868V127.796H357.161ZM386.446 124.868V121.939V119.011H389.374V121.939V124.868H386.446ZM377.66 130.725H380.589V133.653H377.66H374.732H371.803H368.875V130.725H371.803H374.732H377.66ZM380.589 130.725V127.796V124.868H383.517V127.796V130.725H380.589ZM368.875 130.725H365.946V127.796V124.868V121.939V119.011V116.082V113.154V110.225H368.875V113.154V116.082V119.011V121.939V124.868V127.796V130.725ZM360.089 121.939V119.011V116.082H363.018V119.011V121.939H360.089ZM386.446 119.011H383.517V116.082V113.154H386.446V116.082V119.011ZM374.732 104.369H377.66V107.297H374.732H371.803V104.369H374.732ZM371.803 104.369H368.875H365.946V101.44H368.875H371.803V104.369ZM406.934 124.868H404.005V121.939H406.934V119.011V116.082H409.862H412.791V119.011V121.939H409.862V124.868H406.934ZM447.921 133.653V130.725V127.796H450.849V130.725V133.653H447.921ZM462.563 133.653H459.635H456.706V130.725V127.796V124.868V121.939V119.011H453.778V121.939V124.868V127.796H450.849V124.868V121.939V119.011H453.778V116.082V113.154V110.225H450.849H447.921V113.154V116.082V119.011V121.939H444.992H442.064V124.868H444.992V127.796H442.064V130.725V133.653H439.135H436.207V130.725H439.135V127.796V124.868V121.939H436.207H433.278V119.011V116.082V113.154V110.225H436.207H439.135H442.064H444.992H447.921V107.297H450.849H453.778V104.369V101.44H456.706V104.369V107.297H459.635H462.563V104.369H465.492V107.297V110.225H462.563H459.635H456.706V113.154V116.082H459.635V119.011V121.939V124.868V127.796V130.725H462.563V127.796V124.868H465.492V127.796V130.725V133.653H462.563ZM436.207 130.725H433.278V127.796V124.868H436.207V127.796V130.725ZM442.064 119.011H444.992V116.082V113.154H442.064H439.135H436.207V116.082V119.011H439.135H442.064ZM447.921 107.297H444.992H442.064H439.135H436.207H433.278V104.369H436.207H439.135V101.44H442.064V104.369H444.992H447.921V107.297ZM462.563 104.369H459.635V101.44H462.563V104.369ZM477.194 133.653V130.725V127.796V124.868V121.939H474.266V124.868H471.337V121.939H474.266V119.011H477.194V116.082V113.154H480.123V116.082V119.011V121.939V124.868V127.796V130.725V133.653H477.194ZM500.622 130.725H503.551V133.653H500.622H497.694H494.765H491.837H488.908H485.98H483.051V130.725H485.98H488.908H491.837V127.796V124.868V121.939V119.011H488.908H485.98H483.051V116.082H485.98H488.908H491.837V113.154V110.225V107.297H488.908H485.98H483.051V110.225V113.154H480.123V110.225V107.297H477.194H474.266H471.337V104.369H474.266H477.194H480.123H483.051V101.44H485.98V104.369H488.908H491.837H494.765H497.694H500.622H503.551V107.297H500.622H497.694H494.765V110.225V113.154V116.082H497.694H500.622H503.551V119.011H500.622H497.694H494.765V121.939V124.868V127.796V130.725H497.694H500.622ZM509.396 133.653V130.725H512.325V133.653H509.396ZM512.325 116.082V113.154H515.253V116.082H512.325ZM515.253 107.297V104.369H518.182V107.297H515.253ZM538.681 130.725H541.61V133.653H538.681H535.753H532.824H529.896H526.967H524.039H521.11V130.725H524.039H526.967H529.896H532.824H535.753H538.681ZM521.11 130.725H518.182V127.796H521.11V130.725ZM512.325 130.725V127.796H515.253V130.725H512.325ZM535.753 127.796H532.824H529.896H526.967H524.039V124.868V121.939V119.011H526.967H529.896H532.824H535.753H538.681V121.939V124.868V127.796H535.753ZM532.824 124.868H535.753V121.939H532.824H529.896H526.967V124.868H529.896H532.824ZM518.182 127.796H515.253V124.868V121.939H512.325H509.396V119.011H512.325H515.253H518.182V121.939V124.868V127.796ZM535.753 113.154H538.681V116.082H535.753H532.824H529.896H526.967H524.039V113.154H526.967H529.896H532.824H535.753ZM512.325 113.154H509.396V110.225H512.325V113.154ZM538.681 107.297H541.61V110.225H538.681H535.753H532.824H529.896H526.967H524.039H521.11V107.297H524.039H526.967H529.896H532.824H535.753H538.681ZM535.753 101.44H538.681V104.369H535.753H532.824H529.896H526.967H524.039V101.44H526.967H529.896H532.824H535.753ZM515.253 104.369H512.325V101.44H515.253V104.369ZM550.384 133.653V130.725V127.796V124.868V121.939H547.455V119.011H550.384V116.082V113.154H553.312V116.082H556.241V119.011H553.312V121.939H556.241V124.868H553.312V127.796V130.725V133.653H550.384ZM576.74 130.725H579.668V133.653H576.74H573.811H570.883H567.954H565.026H562.098H559.169V130.725H562.098H565.026H567.954V127.796V124.868H565.026H562.098H559.169V121.939H562.098H565.026H567.954V119.011H565.026H562.098H559.169V116.082V113.154V110.225V107.297V104.369V101.44H562.098H565.026H567.954H570.883H573.811H576.74H579.668V104.369V107.297V110.225V113.154V116.082V119.011H576.74H573.811H570.883V121.939H573.811H576.74H579.668V124.868H576.74H573.811H570.883V127.796V130.725H573.811H576.74ZM573.811 116.082H576.74V113.154V110.225H573.811H570.883V113.154V116.082H573.811ZM565.026 116.082H567.954V113.154V110.225H565.026H562.098V113.154V116.082H565.026ZM553.312 113.154V110.225H550.384H547.455V107.297H550.384V104.369V101.44H553.312V104.369V107.297H556.241V110.225V113.154H553.312ZM573.811 107.297H576.74V104.369H573.811H570.883V107.297H573.811ZM565.026 107.297H567.954V104.369H565.026H562.098V107.297H565.026Z" fill="white"/>
<path d="M591.2 56H607.6V60.1H591.2V56ZM587.1 64.2V60.1H591.2V64.2H587.1ZM587.1 80.6H583V64.2H587.1V80.6ZM591.2 84.7H587.1V80.6H591.2V84.7ZM607.6 84.7V88.8H591.2V84.7H607.6ZM611.7 80.6H607.6V84.7H611.7V88.8H615.8V92.9H619.9V97H624V92.9H619.9V88.8H615.8V84.7H611.7V80.6ZM611.7 64.2H615.8V80.6H611.7V64.2ZM611.7 64.2V60.1H607.6V64.2H611.7Z" fill="#5A2AAF"/>
</svg>
